<?xml version="1.0" standalone="no"?><!DOCTYPE svg PUBLIC "-//W3C//DTD SVG 1.1//EN" "http://www.w3.org/Graphics/SVG/1.1/DTD/svg11.dtd"><svg t="1637477283064" class="icon" viewBox="0 0 1024 1024" version="1.1" xmlns="http://www.w3.org/2000/svg" p-id="1510" xmlns:xlink="http://www.w3.org/1999/xlink" width="128" height="128"><defs><style type="text/css"></style></defs><path d="M302.933333 746.666667c-4.266667 0-4.266667 0 0 0-76.8-12.8-132.266667-76.8-132.266666-153.6v-256c0-85.333333 68.266667-153.6 153.6-153.6h251.733333c72.533333 0 136.533333 51.2 149.333333 119.466666 4.266667 8.533333-4.266667 21.333333-12.8 21.333334-8.533333 4.266667-21.333333-4.266667-21.333333-12.8-12.8-51.2-59.733333-93.866667-115.2-93.866667h-256C256 221.866667 204.8 273.066667 204.8 337.066667v256c0 55.466667 42.666667 106.666667 98.133333 115.2 8.533333 0 17.066667 12.8 17.066667 21.333333s-8.533333 17.066667-17.066667 17.066667z" fill="" p-id="1511"></path><path d="M704 285.866667h-260.266667c-72.533333 0-136.533333 59.733333-136.533333 136.533333v268.8c0 72.533333 59.733333 136.533333 136.533333 136.533333h260.266667c72.533333 0 136.533333-59.733333 136.533333-136.533333V418.133333c-4.266667-72.533333-64-132.266667-136.533333-132.266666zM516.266667 640v-140.8l115.2 72.533333-115.2 68.266667z" fill="#FFDD48" p-id="1512"></path><path d="M704 840.533333h-260.266667c-85.333333 0-153.6-68.266667-153.6-153.6V418.133333c0-85.333333 68.266667-153.6 153.6-153.6h260.266667c85.333333 0 153.6 68.266667 153.6 153.6v268.8c0 85.333333-68.266667 153.6-153.6 153.6zM443.733333 302.933333c-64 0-115.2 51.2-115.2 115.2v268.8c0 64 51.2 115.2 115.2 115.2h260.266667c64 0 115.2-51.2 115.2-115.2V418.133333c0-64-51.2-115.2-115.2-115.2h-260.266667z m72.533334 354.133334c-4.266667 0-4.266667 0-8.533334-4.266667s-8.533333-8.533333-8.533333-17.066667v-140.8c0-8.533333 4.266667-12.8 8.533333-17.066666 4.266667-4.266667 12.8-4.266667 17.066667 0L640 554.666667c4.266667 4.266667 8.533333 8.533333 8.533333 17.066666 0 4.266667-4.266667 12.8-8.533333 17.066667l-115.2 68.266667h-8.533333z m17.066666-123.733334v76.8l59.733334-38.4-59.733334-38.4z" fill="" p-id="1513"></path></svg>